<svg width="5" height="17" viewBox="0 0 5 17" fill="none" xmlns="http://www.w3.org/2000/svg">
<path d="M2.5 9.375C2.98325 9.375 3.375 8.98325 3.375 8.5C3.375 8.01675 2.98325 7.625 2.5 7.625C2.01675 7.625 1.625 8.01675 1.625 8.5C1.625 8.98325 2.01675 9.375 2.5 9.375Z" stroke="#626262" stroke-width="2" stroke-linecap="round" stroke-linejoin="round"/>
<path d="M2.5 3.25C2.98325 3.25 3.375 2.85825 3.375 2.375C3.375 1.89175 2.98325 1.5 2.5 1.5C2.01675 1.5 1.625 1.89175 1.625 2.375C1.625 2.85825 2.01675 3.25 2.5 3.25Z" stroke="#626262" stroke-width="2" stroke-linecap="round" stroke-linejoin="round"/>
<path d="M2.5 15.5C2.98325 15.5 3.375 15.1082 3.375 14.625C3.375 14.1418 2.98325 13.75 2.5 13.75C2.01675 13.75 1.625 14.1418 1.625 14.625C1.625 15.1082 2.01675 15.5 2.5 15.5Z" stroke="#626262" stroke-width="2" stroke-linecap="round" stroke-linejoin="round"/>
</svg>
